<?xml version="1.0" encoding="utf-8" ?>
<svg baseProfile="full" height="150.0mm" version="1.1" width="100mm" xmlns="http://www.w3.org/2000/svg" xmlns:ev="http://www.w3.org/2001/xml-events" xmlns:xlink="http://www.w3.org/1999/xlink"><defs /><line stroke="black" stroke-width="1" x1="0mm" x2="0mm" y1="50.0mm" y2="150.0mm" /><line stroke="black" stroke-width="1" x1="0mm" x2="23.5mm" y1="150.0mm" y2="150.0mm" /><line stroke="black" stroke-width="1" x1="23.5mm" x2="23.5mm" y1="150.0mm" y2="50.0mm" /><line stroke="black" stroke-width="1" x1="23.5mm" x2="26.5mm" y1="50.0mm" y2="50.0mm" /><line stroke="black" stroke-width="1" x1="26.5mm" x2="26.5mm" y1="50.0mm" y2="150.0mm" /><line stroke="black" stroke-width="1" x1="26.5mm" x2="48.5mm" y1="150.0mm" y2="150.0mm" /><line stroke="black" stroke-width="1" x1="48.5mm" x2="48.5mm" y1="150.0mm" y2="50.0mm" /><line stroke="black" stroke-width="1" x1="48.5mm" x2="51.5mm" y1="50.0mm" y2="50.0mm" /><line stroke="black" stroke-width="1" x1="51.5mm" x2="51.5mm" y1="50.0mm" y2="150.0mm" /><line stroke="black" stroke-width="1" x1="51.5mm" x2="73.5mm" y1="150.0mm" y2="150.0mm" /><line stroke="black" stroke-width="1" x1="73.5mm" x2="73.5mm" y1="150.0mm" y2="50.0mm" /><line stroke="black" stroke-width="1" x1="73.5mm" x2="76.5mm" y1="50.0mm" y2="50.0mm" /><line stroke="black" stroke-width="1" x1="76.5mm" x2="76.5mm" y1="50.0mm" y2="150.0mm" /><line stroke="black" stroke-width="1" x1="76.5mm" x2="100mm" y1="150.0mm" y2="150.0mm" /><line stroke="black" stroke-width="1" x1="100mm" x2="100mm" y1="150.0mm" y2="50.0mm" /><line stroke="black" stroke-width="1" x1="100.0mm" x2="99.90133642141357mm" y1="50.0mm" y2="46.86047402353433mm" /><line stroke="black" stroke-width="1" x1="99.90133642141357mm" x2="99.60573506572389mm" y1="46.86047402353433mm" y2="43.733338321784785mm" /><line stroke="black" stroke-width="1" x1="99.60573506572389mm" x2="99.11436253643444mm" y1="43.733338321784785mm" y2="40.630934270713766mm" /><line stroke="black" stroke-width="1" x1="99.11436253643444mm" x2="98.42915805643156mm" y1="40.630934270713766mm" y2="37.56550564175726mm" /><line stroke="black" stroke-width="1" x1="98.42915805643156mm" x2="97.55282581475768mm" y1="37.56550564175726mm" y2="34.54915028125263mm" /><line stroke="black" stroke-width="1" x1="97.55282581475768mm" x2="96.48882429441257mm" y1="34.54915028125263mm" y2="31.5937723657661mm" /><line stroke="black" stroke-width="1" x1="96.48882429441257mm" x2="95.24135262330097mm" y1="31.5937723657661mm" y2="28.711035421746363mm" /><line stroke="black" stroke-width="1" x1="95.24135262330097mm" x2="93.81533400219318mm" y1="28.711035421746363mm" y2="25.912316294914234mm" /><line stroke="black" stroke-width="1" x1="93.81533400219318mm" x2="92.21639627510075mm" y1="25.912316294914234mm" y2="23.208660251050166mm" /><line stroke="black" stroke-width="1" x1="92.21639627510075mm" x2="90.45084971874738mm" y1="23.208660251050166mm" y2="20.610737385376343mm" /><line stroke="black" stroke-width="1" x1="90.45084971874738mm" x2="88.52566213878946mm" y1="20.610737385376343mm" y2="18.128800512565512mm" /><line stroke="black" stroke-width="1" x1="88.52566213878946mm" x2="86.44843137107057mm" y1="18.128800512565512mm" y2="15.772644703565561mm" /><line stroke="black" stroke-width="1" x1="86.44843137107057mm" x2="84.22735529643444mm" y1="15.772644703565561mm" y2="13.551568628929424mm" /><line stroke="black" stroke-width="1" x1="84.22735529643444mm" x2="81.87119948743448mm" y1="13.551568628929424mm" y2="11.474337861210536mm" /><line stroke="black" stroke-width="1" x1="81.87119948743448mm" x2="79.38926261462365mm" y1="11.474337861210536mm" y2="9.54915028125263mm" /><line stroke="black" stroke-width="1" x1="79.38926261462365mm" x2="76.79133974894982mm" y1="9.54915028125263mm" y2="7.783603724899244mm" /><line stroke="black" stroke-width="1" x1="76.79133974894982mm" x2="74.08768370508577mm" y1="7.783603724899244mm" y2="6.1846659978068175mm" /><line stroke="black" stroke-width="1" x1="74.08768370508577mm" x2="71.28896457825363mm" y1="6.1846659978068175mm" y2="4.758647376699024mm" /><line stroke="black" stroke-width="1" x1="71.28896457825363mm" x2="68.40622763423389mm" y1="4.758647376699024mm" y2="3.5111757055874264mm" /><line stroke="black" stroke-width="1" x1="68.40622763423389mm" x2="65.45084971874738mm" y1="3.5111757055874264mm" y2="2.447174185242325mm" /><line stroke="black" stroke-width="1" x1="65.45084971874738mm" x2="62.43449435824274mm" y1="2.447174185242325mm" y2="1.5708419435684462mm" /><line stroke="black" stroke-width="1" x1="62.43449435824274mm" x2="59.36906572928623mm" y1="1.5708419435684462mm" y2="0.8856374635655655mm" /><line stroke="black" stroke-width="1" x1="59.36906572928623mm" x2="56.266661678215215mm" y1="0.8856374635655655mm" y2="0.39426493427610865mm" /><line stroke="black" stroke-width="1" x1="56.266661678215215mm" x2="53.13952597646566mm" y1="0.39426493427610865mm" y2="0.09866357858642516mm" /><line stroke="black" stroke-width="1" x1="53.13952597646566mm" x2="49.99999999999999mm" y1="0.09866357858642516mm" y2="0.0mm" /><line stroke="black" stroke-width="1" x1="49.99999999999999mm" x2="46.86047402353433mm" y1="0.0mm" y2="0.09866357858642516mm" /><line stroke="black" stroke-width="1" x1="46.86047402353433mm" x2="43.733338321784785mm" y1="0.09866357858642516mm" y2="0.39426493427610865mm" /><line stroke="black" stroke-width="1" x1="43.733338321784785mm" x2="40.63093427071376mm" y1="0.39426493427610865mm" y2="0.8856374635655726mm" /><line stroke="black" stroke-width="1" x1="40.63093427071376mm" x2="37.565505641757255mm" y1="0.8856374635655726mm" y2="1.5708419435684462mm" /><line stroke="black" stroke-width="1" x1="37.565505641757255mm" x2="34.54915028125262mm" y1="1.5708419435684462mm" y2="2.447174185242325mm" /><line stroke="black" stroke-width="1" x1="34.54915028125262mm" x2="31.5937723657661mm" y1="2.447174185242325mm" y2="3.5111757055874264mm" /><line stroke="black" stroke-width="1" x1="31.5937723657661mm" x2="28.711035421746363mm" y1="3.5111757055874264mm" y2="4.758647376699024mm" /><line stroke="black" stroke-width="1" x1="28.711035421746363mm" x2="25.912316294914227mm" y1="4.758647376699024mm" y2="6.184665997806825mm" /><line stroke="black" stroke-width="1" x1="25.912316294914227mm" x2="23.208660251050155mm" y1="6.184665997806825mm" y2="7.783603724899251mm" /><line stroke="black" stroke-width="1" x1="23.208660251050155mm" x2="20.61073738537635mm" y1="7.783603724899251mm" y2="9.54915028125263mm" /><line stroke="black" stroke-width="1" x1="20.61073738537635mm" x2="18.128800512565512mm" y1="9.54915028125263mm" y2="11.474337861210536mm" /><line stroke="black" stroke-width="1" x1="18.128800512565512mm" x2="15.772644703565561mm" y1="11.474337861210536mm" y2="13.55156862892943mm" /><line stroke="black" stroke-width="1" x1="15.772644703565561mm" x2="13.551568628929417mm" y1="13.55156862892943mm" y2="15.772644703565575mm" /><line stroke="black" stroke-width="1" x1="13.551568628929417mm" x2="11.474337861210529mm" y1="15.772644703565575mm" y2="18.128800512565522mm" /><line stroke="black" stroke-width="1" x1="11.474337861210529mm" x2="9.549150281252636mm" y1="18.128800512565522mm" y2="20.61073738537634mm" /><line stroke="black" stroke-width="1" x1="9.549150281252636mm" x2="7.783603724899244mm" y1="20.61073738537634mm" y2="23.208660251050166mm" /><line stroke="black" stroke-width="1" x1="7.783603724899244mm" x2="6.1846659978068175mm" y1="23.208660251050166mm" y2="25.91231629491424mm" /><line stroke="black" stroke-width="1" x1="6.1846659978068175mm" x2="4.758647376699024mm" y1="25.91231629491424mm" y2="28.711035421746374mm" /><line stroke="black" stroke-width="1" x1="4.758647376699024mm" x2="3.5111757055874264mm" y1="28.711035421746374mm" y2="31.593772365766114mm" /><line stroke="black" stroke-width="1" x1="3.5111757055874264mm" x2="2.447174185242318mm" y1="31.593772365766114mm" y2="34.54915028125264mm" /><line stroke="black" stroke-width="1" x1="2.447174185242318mm" x2="1.5708419435684462mm" y1="34.54915028125264mm" y2="37.565505641757255mm" /><line stroke="black" stroke-width="1" x1="1.5708419435684462mm" x2="0.8856374635655655mm" y1="37.565505641757255mm" y2="40.63093427071377mm" /><line stroke="black" stroke-width="1" x1="0.8856374635655655mm" x2="0.39426493427610865mm" y1="40.63093427071377mm" y2="43.73333832178479mm" /><line stroke="black" stroke-width="1" x1="0.39426493427610865mm" x2="0.09866357858642516mm" y1="43.73333832178479mm" y2="46.860474023534344mm" /><line stroke="black" stroke-width="1" x1="0.09866357858642516mm" x2="0.0mm" y1="46.860474023534344mm" y2="50.000000000000014mm" /><line stroke="red" stroke-width="1" x1="61.78511301977579mm" x2="62.143482090141724mm" y1="30.892556509887896mm" y2="30.510932211030433mm" /><line stroke="red" stroke-width="1" x1="62.143482090141724mm" x2="62.47718161301865mm" y1="30.510932211030433mm" y2="30.107558780441472mm" /><line stroke="red" stroke-width="1" x1="62.47718161301865mm" x2="62.78489462884258mm" y1="30.107558780441472mm" y2="29.684028148767755mm" /><line stroke="red" stroke-width="1" x1="62.78489462884258mm" x2="63.06540673492076mm" y1="29.684028148767755mm" y2="29.24201179791976mm" /><line stroke="red" stroke-width="1" x1="63.06540673492076mm" x2="63.3176108781243mm" y1="29.24201179791976mm" y2="28.783254164496224mm" /><line stroke="red" stroke-width="1" x1="63.3176108781243mm" x2="63.54051172392107mm" y1="28.783254164496224mm" y2="28.30956575528984mm" /><line stroke="red" stroke-width="1" x1="63.54051172392107mm" x2="63.73322958450644mm" y1="28.30956575528984mm" y2="27.822816002044096mm" /><line stroke="red" stroke-width="1" x1="63.73322958450644mm" x2="63.89500389052909mm" y1="27.822816002044096mm" y2="27.324925883660242mm" /><line stroke="red" stroke-width="1" x1="63.89500389052909mm" x2="64.0251961927108mm" y1="27.324925883660242mm" y2="26.817860344971187mm" /><line stroke="red" stroke-width="1" x1="64.0251961927108mm" x2="64.12329268151404mm" y1="26.817860344971187mm" y2="26.303620542001923mm" /><line stroke="red" stroke-width="1" x1="64.12329268151404mm" x2="64.18890621491356mm" y1="26.303620542001923mm" y2="25.78423594432095mm" /><line stroke="red" stroke-width="1" x1="64.18890621491356mm" x2="64.22177784626899mm" y1="25.78423594432095mm" y2="25.261756325651067mm" /><line stroke="red" stroke-width="1" x1="64.22177784626899mm" x2="64.22177784626899mm" y1="25.261756325651067mm" y2="24.73824367434893mm" /><line stroke="red" stroke-width="1" x1="64.22177784626899mm" x2="64.18890621491356mm" y1="24.73824367434893mm" y2="24.215764055679045mm" /><line stroke="red" stroke-width="1" x1="64.18890621491356mm" x2="64.12329268151404mm" y1="24.215764055679045mm" y2="23.696379457998074mm" /><line stroke="red" stroke-width="1" x1="64.12329268151404mm" x2="64.0251961927108mm" y1="23.696379457998074mm" y2="23.182139655028813mm" /><line stroke="red" stroke-width="1" x1="64.0251961927108mm" x2="63.89500389052909mm" y1="23.182139655028813mm" y2="22.675074116339754mm" /><line stroke="red" stroke-width="1" x1="63.89500389052909mm" x2="63.73322958450644mm" y1="22.675074116339754mm" y2="22.177183997955904mm" /><line stroke="red" stroke-width="1" x1="63.73322958450644mm" x2="63.54051172392107mm" y1="22.177183997955904mm" y2="21.69043424471016mm" /><line stroke="red" stroke-width="1" x1="63.54051172392107mm" x2="63.3176108781243mm" y1="21.69043424471016mm" y2="21.216745835503776mm" /><line stroke="red" stroke-width="1" x1="63.3176108781243mm" x2="63.06540673492076mm" y1="21.216745835503776mm" y2="20.757988202080238mm" /><line stroke="red" stroke-width="1" x1="63.06540673492076mm" x2="62.78489462884258mm" y1="20.757988202080238mm" y2="20.315971851232245mm" /><line stroke="red" stroke-width="1" x1="62.78489462884258mm" x2="62.47718161301865mm" y1="20.315971851232245mm" y2="19.892441219558528mm" /><line stroke="red" stroke-width="1" x1="62.47718161301865mm" x2="62.143482090141724mm" y1="19.892441219558528mm" y2="19.489067788969567mm" /><line stroke="red" stroke-width="1" x1="62.143482090141724mm" x2="61.78511301977579mm" y1="19.489067788969567mm" y2="19.107443490112104mm" /><line stroke="red" stroke-width="1" x1="61.78511301977579mm" x2="61.40348872091833mm" y1="19.107443490112104mm" y2="18.74907441974617mm" /><line stroke="red" stroke-width="1" x1="61.40348872091833mm" x2="61.00011529032937mm" y1="18.74907441974617mm" y2="18.415374896869245mm" /><line stroke="red" stroke-width="1" x1="61.00011529032937mm" x2="60.57658465865565mm" y1="18.415374896869245mm" y2="18.107661881045317mm" /><line stroke="red" stroke-width="1" x1="60.57658465865565mm" x2="60.134568307807655mm" y1="18.107661881045317mm" y2="17.827149774967136mm" /><line stroke="red" stroke-width="1" x1="60.134568307807655mm" x2="59.67581067438412mm" y1="17.827149774967136mm" y2="17.5749456317636mm" /><line stroke="red" stroke-width="1" x1="59.67581067438412mm" x2="59.202122265177735mm" y1="17.5749456317636mm" y2="17.352044785966825mm" /><line stroke="red" stroke-width="1" x1="59.202122265177735mm" x2="58.71537251193199mm" y1="17.352044785966825mm" y2="17.159326925381453mm" /><line stroke="red" stroke-width="1" x1="58.71537251193199mm" x2="58.21748239354814mm" y1="17.159326925381453mm" y2="16.997552619358807mm" /><line stroke="red" stroke-width="1" x1="58.21748239354814mm" x2="57.71041685485908mm" y1="16.997552619358807mm" y2="16.867360317177102mm" /><line stroke="red" stroke-width="1" x1="57.71041685485908mm" x2="57.19617705188982mm" y1="16.867360317177102mm" y2="16.76926382837385mm" /><line stroke="red" stroke-width="1" x1="57.19617705188982mm" x2="56.67679245420885mm" y1="16.76926382837385mm" y2="16.70365029497433mm" /><line stroke="red" stroke-width="1" x1="56.67679245420885mm" x2="56.15431283553897mm" y1="16.70365029497433mm" y2="16.670778663618904mm" /><line stroke="red" stroke-width="1" x1="56.15431283553897mm" x2="55.630800184236826mm" y1="16.670778663618904mm" y2="16.670778663618904mm" /><line stroke="red" stroke-width="1" x1="55.630800184236826mm" x2="55.10832056556694mm" y1="16.670778663618904mm" y2="16.70365029497433mm" /><line stroke="red" stroke-width="1" x1="55.10832056556694mm" x2="54.58893596788597mm" y1="16.70365029497433mm" y2="16.76926382837385mm" /><line stroke="red" stroke-width="1" x1="54.58893596788597mm" x2="54.07469616491671mm" y1="16.76926382837385mm" y2="16.867360317177102mm" /><line stroke="red" stroke-width="1" x1="54.07469616491671mm" x2="53.567630626227654mm" y1="16.867360317177102mm" y2="16.997552619358807mm" /><line stroke="red" stroke-width="1" x1="53.567630626227654mm" x2="53.0697405078438mm" y1="16.997552619358807mm" y2="17.159326925381453mm" /><line stroke="red" stroke-width="1" x1="53.0697405078438mm" x2="52.58299075459806mm" y1="17.159326925381453mm" y2="17.352044785966825mm" /><line stroke="red" stroke-width="1" x1="52.58299075459806mm" x2="52.10930234539167mm" y1="17.352044785966825mm" y2="17.5749456317636mm" /><line stroke="red" stroke-width="1" x1="52.10930234539167mm" x2="51.65054471196814mm" y1="17.5749456317636mm" y2="17.827149774967136mm" /><line stroke="red" stroke-width="1" x1="51.65054471196814mm" x2="51.20852836112014mm" y1="17.827149774967136mm" y2="18.107661881045317mm" /><line stroke="red" stroke-width="1" x1="51.20852836112014mm" x2="50.784997729446424mm" y1="18.107661881045317mm" y2="18.415374896869245mm" /><line stroke="red" stroke-width="1" x1="50.784997729446424mm" x2="50.38162429885746mm" y1="18.415374896869245mm" y2="18.749074419746172mm" /><line stroke="red" stroke-width="1" x1="50.38162429885746mm" x2="50.0mm" y1="18.749074419746172mm" y2="19.107443490112104mm" /><line stroke="red" stroke-width="1" x1="50.0mm" x2="49.61837570114254mm" y1="19.107443490112104mm" y2="18.749074419746172mm" /><line stroke="red" stroke-width="1" x1="49.61837570114254mm" x2="49.215002270553576mm" y1="18.749074419746172mm" y2="18.415374896869245mm" /><line stroke="red" stroke-width="1" x1="49.215002270553576mm" x2="48.791471638879855mm" y1="18.415374896869245mm" y2="18.107661881045317mm" /><line stroke="red" stroke-width="1" x1="48.791471638879855mm" x2="48.34945528803186mm" y1="18.107661881045317mm" y2="17.827149774967136mm" /><line stroke="red" stroke-width="1" x1="48.34945528803186mm" x2="47.890697654608324mm" y1="17.827149774967136mm" y2="17.5749456317636mm" /><line stroke="red" stroke-width="1" x1="47.890697654608324mm" x2="47.41700924540194mm" y1="17.5749456317636mm" y2="17.352044785966825mm" /><line stroke="red" stroke-width="1" x1="47.41700924540194mm" x2="46.930259492156196mm" y1="17.352044785966825mm" y2="17.159326925381453mm" /><line stroke="red" stroke-width="1" x1="46.930259492156196mm" x2="46.432369373772346mm" y1="17.159326925381453mm" y2="16.997552619358807mm" /><line stroke="red" stroke-width="1" x1="46.432369373772346mm" x2="45.92530383508329mm" y1="16.997552619358807mm" y2="16.867360317177106mm" /><line stroke="red" stroke-width="1" x1="45.92530383508329mm" x2="45.41106403211403mm" y1="16.867360317177106mm" y2="16.76926382837385mm" /><line stroke="red" stroke-width="1" x1="45.41106403211403mm" x2="44.89167943443306mm" y1="16.76926382837385mm" y2="16.70365029497433mm" /><line stroke="red" stroke-width="1" x1="44.89167943443306mm" x2="44.369199815763174mm" y1="16.70365029497433mm" y2="16.670778663618904mm" /><line stroke="red" stroke-width="1" x1="44.369199815763174mm" x2="43.84568716446103mm" y1="16.670778663618904mm" y2="16.670778663618904mm" /><line stroke="red" stroke-width="1" x1="43.84568716446103mm" x2="43.32320754579115mm" y1="16.670778663618904mm" y2="16.70365029497433mm" /><line stroke="red" stroke-width="1" x1="43.32320754579115mm" x2="42.80382294811018mm" y1="16.70365029497433mm" y2="16.76926382837385mm" /><line stroke="red" stroke-width="1" x1="42.80382294811018mm" x2="42.28958314514092mm" y1="16.76926382837385mm" y2="16.867360317177102mm" /><line stroke="red" stroke-width="1" x1="42.28958314514092mm" x2="41.78251760645186mm" y1="16.867360317177102mm" y2="16.997552619358807mm" /><line stroke="red" stroke-width="1" x1="41.78251760645186mm" x2="41.28462748806801mm" y1="16.997552619358807mm" y2="17.159326925381453mm" /><line stroke="red" stroke-width="1" x1="41.28462748806801mm" x2="40.797877734822265mm" y1="17.159326925381453mm" y2="17.352044785966825mm" /><line stroke="red" stroke-width="1" x1="40.797877734822265mm" x2="40.32418932561588mm" y1="17.352044785966825mm" y2="17.5749456317636mm" /><line stroke="red" stroke-width="1" x1="40.32418932561588mm" x2="39.865431692192345mm" y1="17.5749456317636mm" y2="17.827149774967136mm" /><line stroke="red" stroke-width="1" x1="39.865431692192345mm" x2="39.423415341344345mm" y1="17.827149774967136mm" y2="18.107661881045317mm" /><line stroke="red" stroke-width="1" x1="39.423415341344345mm" x2="38.99988470967064mm" y1="18.107661881045317mm" y2="18.415374896869245mm" /><line stroke="red" stroke-width="1" x1="38.99988470967064mm" x2="38.59651127908167mm" y1="18.415374896869245mm" y2="18.749074419746172mm" /><line stroke="red" stroke-width="1" x1="38.59651127908167mm" x2="38.21488698022421mm" y1="18.749074419746172mm" y2="19.107443490112104mm" /><line stroke="red" stroke-width="1" x1="38.21488698022421mm" x2="37.856517909858276mm" y1="19.107443490112104mm" y2="19.489067788969567mm" /><line stroke="red" stroke-width="1" x1="37.856517909858276mm" x2="37.52281838698135mm" y1="19.489067788969567mm" y2="19.89244121955853mm" /><line stroke="red" stroke-width="1" x1="37.52281838698135mm" x2="37.21510537115742mm" y1="19.89244121955853mm" y2="20.315971851232245mm" /><line stroke="red" stroke-width="1" x1="37.21510537115742mm" x2="36.934593265079236mm" y1="20.315971851232245mm" y2="20.75798820208024mm" /><line stroke="red" stroke-width="1" x1="36.934593265079236mm" x2="36.6823891218757mm" y1="20.75798820208024mm" y2="21.216745835503776mm" /><line stroke="red" stroke-width="1" x1="36.6823891218757mm" x2="36.45948827607893mm" y1="21.216745835503776mm" y2="21.69043424471016mm" /><line stroke="red" stroke-width="1" x1="36.45948827607893mm" x2="36.26677041549356mm" y1="21.69043424471016mm" y2="22.177183997955904mm" /><line stroke="red" stroke-width="1" x1="36.26677041549356mm" x2="36.10499610947091mm" y1="22.177183997955904mm" y2="22.675074116339758mm" /><line stroke="red" stroke-width="1" x1="36.10499610947091mm" x2="35.974803807289206mm" y1="22.675074116339758mm" y2="23.182139655028813mm" /><line stroke="red" stroke-width="1" x1="35.974803807289206mm" x2="35.876707318485956mm" y1="23.182139655028813mm" y2="23.696379457998074mm" /><line stroke="red" stroke-width="1" x1="35.876707318485956mm" x2="35.811093785086435mm" y1="23.696379457998074mm" y2="24.215764055679045mm" /><line stroke="red" stroke-width="1" x1="35.811093785086435mm" x2="35.77822215373101mm" y1="24.215764055679045mm" y2="24.738243674348933mm" /><line stroke="red" stroke-width="1" x1="35.77822215373101mm" x2="35.77822215373101mm" y1="24.738243674348933mm" y2="25.26175632565107mm" /><line stroke="red" stroke-width="1" x1="35.77822215373101mm" x2="35.811093785086435mm" y1="25.26175632565107mm" y2="25.784235944320955mm" /><line stroke="red" stroke-width="1" x1="35.811093785086435mm" x2="35.876707318485956mm" y1="25.784235944320955mm" y2="26.303620542001923mm" /><line stroke="red" stroke-width="1" x1="35.876707318485956mm" x2="35.974803807289206mm" y1="26.303620542001923mm" y2="26.817860344971187mm" /><line stroke="red" stroke-width="1" x1="35.974803807289206mm" x2="36.10499610947091mm" y1="26.817860344971187mm" y2="27.324925883660242mm" /><line stroke="red" stroke-width="1" x1="36.10499610947091mm" x2="36.26677041549356mm" y1="27.324925883660242mm" y2="27.822816002044096mm" /><line stroke="red" stroke-width="1" x1="36.26677041549356mm" x2="36.45948827607893mm" y1="27.822816002044096mm" y2="28.30956575528984mm" /><line stroke="red" stroke-width="1" x1="36.45948827607893mm" x2="36.68238912187571mm" y1="28.30956575528984mm" y2="28.783254164496228mm" /><line stroke="red" stroke-width="1" x1="36.68238912187571mm" x2="36.93459326507924mm" y1="28.783254164496228mm" y2="29.24201179791976mm" /><line stroke="red" stroke-width="1" x1="36.93459326507924mm" x2="37.21510537115742mm" y1="29.24201179791976mm" y2="29.684028148767755mm" /><line stroke="red" stroke-width="1" x1="37.21510537115742mm" x2="37.52281838698135mm" y1="29.684028148767755mm" y2="30.107558780441472mm" /><line stroke="red" stroke-width="1" x1="37.52281838698135mm" x2="37.856517909858276mm" y1="30.107558780441472mm" y2="30.510932211030436mm" /><line stroke="red" stroke-width="1" x1="37.856517909858276mm" x2="38.21488698022421mm" y1="30.510932211030436mm" y2="30.892556509887896mm" /><line stroke="red" stroke-width="1" x1="38.21488698022421mm" x2="50.0mm" y1="30.892556509887896mm" y2="42.67766952966369mm" /><line stroke="red" stroke-width="1" x1="61.78511301977579mm" x2="50.0mm" y1="30.892556509887896mm" y2="42.67766952966369mm" /><line stroke="red" stroke-width="1" x1="38.21488698022421mm" x2="50.0mm" y1="30.892556509887896mm" y2="19.107443490112104mm" /><line stroke="red" stroke-width="1" x1="61.78511301977579mm" x2="50.0mm" y1="30.892556509887896mm" y2="19.107443490112104mm" /><line stroke="red" stroke-width="1" x1="41.161165235168156mm" x2="52.94627825494395mm" y1="27.946278254943948mm" y2="39.73139127471974mm" /><line stroke="red" stroke-width="1" x1="52.94627825494395mm" x2="41.161165235168156mm" y1="22.053721745056052mm" y2="33.838834764831844mm" /><line stroke="red" stroke-width="1" x1="44.107443490112104mm" x2="55.892556509887896mm" y1="25.0mm" y2="36.78511301977579mm" /><line stroke="red" stroke-width="1" x1="55.892556509887896mm" x2="44.107443490112104mm" y1="25.0mm" y2="36.78511301977579mm" /><line stroke="red" stroke-width="1" x1="47.05372174505605mm" x2="58.838834764831844mm" y1="22.053721745056052mm" y2="33.838834764831844mm" /><line stroke="red" stroke-width="1" x1="58.838834764831844mm" x2="47.05372174505605mm" y1="27.946278254943948mm" y2="39.73139127471974mm" /></svg>